name GIL11_fast2EmgEnv.mot
datacolumns 51
datarows 10
range 0.09259251 0.10092584
endheader
                time	   rect_fem_l_emgRec	   rect_fem_l_emgEnv	   rect_fem_l_emgAve	   rect_fem_l_emgSDp	   rect_fem_l_emgSDm	   rect_fem_r_emgRec	   rect_fem_r_emgEnv	   rect_fem_r_emgAve	   rect_fem_r_emgSDp	   rect_fem_r_emgSDm	   med_hams_l_emgRec	   med_hams_l_emgEnv	   med_hams_l_emgAve	   med_hams_l_emgSDp	   med_hams_l_emgSDm	   med_hams_r_emgRec	   med_hams_r_emgEnv	   med_hams_r_emgAve	   med_hams_r_emgSDp	   med_hams_r_emgSDm	   lat_hams_l_emgRec	   lat_hams_l_emgEnv	   lat_hams_l_emgAve	   lat_hams_l_emgSDp	   lat_hams_l_emgSDm	   lat_hams_r_emgRec	   lat_hams_r_emgEnv	   lat_hams_r_emgAve	   lat_hams_r_emgSDp	   lat_hams_r_emgSDm	    tib_ant_l_emgRec	    tib_ant_l_emgEnv	    tib_ant_l_emgAve	    tib_ant_l_emgSDp	    tib_ant_l_emgSDm	    tib_ant_r_emgRec	    tib_ant_r_emgEnv	    tib_ant_r_emgAve	    tib_ant_r_emgSDp	    tib_ant_r_emgSDm	    gas_sol_l_emgRec	    gas_sol_l_emgEnv	    gas_sol_l_emgAve	    gas_sol_l_emgSDp	    gas_sol_l_emgSDm	    gas_sol_r_emgRec	    gas_sol_r_emgEnv	    gas_sol_r_emgAve	    gas_sol_r_emgSDp	    gas_sol_r_emgSDm	
          0.09259251	          0.00229231	          0.06532840	          0.26897559	          0.43260069	          0.10535048	          0.01257286	          0.31940777	          0.35514474	          0.46488109	          0.24540839	          0.00003659	          0.01316044	          0.09165984	          0.10825592	          0.07506375	          0.06255284	          0.10157431	          0.12375901	          0.18017142	          0.06734660	          0.00263659	          0.02587158	          0.06595827	          0.08923915	          0.04267739	          0.01709133	          0.10474831	          0.11214997	          0.14399685	          0.08030309	          0.13351547	          0.50404493	          0.54802948	          0.63292737	          0.46313160	          0.02438058	          0.08577094	          0.16992135	          0.29302736	          0.04681534	          0.00758502	          0.04666156	          0.09441742	          0.15156329	          0.03727154	          0.04407522	          0.13615625	          0.38946846	          0.59021556	          0.18872136	
          0.09351843	          0.00432245	          0.06270993	          0.26869708	          0.43249524	          0.10489893	          0.11610097	          0.31614356	          0.34755361	          0.45591795	          0.23918927	          0.00223486	          0.01349786	          0.09189945	          0.10841813	          0.07538076	          0.00466650	          0.10344415	          0.12525643	          0.18241125	          0.06810162	          0.00213969	          0.02617533	          0.06586120	          0.08891024	          0.04281215	          0.00441536	          0.10765245	          0.11273315	          0.14585983	          0.07960647	          0.09641188	          0.50951876	          0.55224520	          0.63709301	          0.46739739	          0.01756026	          0.08333070	          0.16652358	          0.28727094	          0.04577621	          0.02409013	          0.04732682	          0.09468684	          0.15150471	          0.03786898	          0.18806436	          0.13871650	          0.39076787	          0.59076490	          0.19077085	
          0.09444436	         -0.00019158	          0.06028930	          0.26840636	          0.43236370	          0.10444902	          0.23962240	          0.31291309	          0.33996111	          0.44693568	          0.23298654	          0.00227170	          0.01385307	          0.09208336	          0.10852410	          0.07564263	          0.04240230	          0.10528315	          0.12678759	          0.18470586	          0.06886931	          0.00000093	          0.02649436	          0.06573109	          0.08854657	          0.04291562	          0.01469629	          0.11062170	          0.11336604	          0.14781212	          0.07891996	          0.07759286	          0.51504527	          0.55641991	          0.64122816	          0.47161166	          0.02488367	          0.08108739	          0.16318470	          0.28156741	          0.04480200	          0.02579224	          0.04800823	          0.09494795	          0.15143455	          0.03846135	          0.11043787	          0.14122974	          0.39199552	          0.59122165	          0.19276939	
          0.09537029	          0.01665847	          0.05806020	          0.26810274	          0.43220539	          0.10400008	          0.24503182	          0.30971185	          0.33237097	          0.43793897	          0.22680297	          0.00092784	          0.01422372	          0.09221084	          0.10857297	          0.07584872	          0.08530923	          0.10708893	          0.12835044	          0.18705216	          0.06964872	          0.00338638	          0.02682554	          0.06556743	          0.08814747	          0.04298738	          0.02401493	          0.11364852	          0.11404660	          0.14984974	          0.07824347	          0.08712937	          0.52062512	          0.56055307	          0.64533268	          0.47577347	          0.04194849	          0.07903545	          0.15990457	          0.27591798	          0.04389115	          0.02188093	          0.04870563	          0.09520042	          0.15135251	          0.03904833	          0.05154109	          0.14369254	          0.39315149	          0.59158628	          0.19471671	
          0.09629621	          0.02871264	          0.05601610	          0.26778555	          0.43201944	          0.10355166	          0.17846200	          0.30653545	          0.32478687	          0.42893263	          0.22064111	          0.00244363	          0.01460757	          0.09228116	          0.10856394	          0.07599838	          0.09814495	          0.10885934	          0.12994300	          0.18944703	          0.07043896	          0.00030820	          0.02716587	          0.06536961	          0.08771221	          0.04302700	          0.03746857	          0.11672542	          0.11477271	          0.15196864	          0.07757679	          0.11837650	          0.52625854	          0.56464350	          0.64940573	          0.47988127	          0.04289375	          0.07716914	          0.15668297	          0.27032381	          0.04304212	          0.01635128	          0.04941882	          0.09544395	          0.15125830	          0.03962960	          0.04503336	          0.14610168	          0.39423588	          0.59185922	          0.19661254	
          0.09722213	          0.02454065	          0.05415026	          0.26745427	          0.43180531	          0.10310322	          0.12985528	          0.30337963	          0.31721255	          0.41992144	          0.21450367	          0.00264778	          0.01500240	          0.09229365	          0.10849625	          0.07609105	          0.08356999	          0.11059249	          0.13156328	          0.19188742	          0.07123914	          0.00247241	          0.02751250	          0.06513716	          0.08724019	          0.04303413	          0.04652722	          0.11984494	          0.11554222	          0.15416469	          0.07691975	          0.03178030	          0.53194530	          0.56869060	          0.65344708	          0.48393412	          0.03054321	          0.07548260	          0.15351965	          0.26478598	          0.04225331	          0.00108906	          0.05014755	          0.09567824	          0.15115162	          0.04020486	          0.02433920	          0.14845417	          0.39524901	          0.59204116	          0.19845685	
          0.09814806	          0.02807504	          0.05245577	          0.26710823	          0.43156229	          0.10265417	          0.07160361	          0.30024028	          0.30965194	          0.41091042	          0.20839346	         -0.00002208	          0.01540611	          0.09224766	          0.10836916	          0.07612616	          0.07878174	          0.11228672	          0.13320912	          0.19437004	          0.07204821	          0.00311121	          0.02786269	          0.06486961	          0.08673083	          0.04300838	          0.04218274	          0.12299969	          0.11635288	          0.15643364	          0.07627212	          0.05626655	          0.53768475	          0.57269371	          0.65745639	          0.48793102	          0.01434295	          0.07396983	          0.15041429	          0.25930556	          0.04152302	          0.02109937	          0.05089155	          0.09590302	          0.15103221	          0.04077384	          0.00668105	          0.15074726	          0.39619094	          0.59213249	          0.20024939	
          0.09907398	          0.02965456	          0.05092560	          0.26674697	          0.43128972	          0.10220422	          0.04298941	          0.29711347	          0.30210891	          0.40190461	          0.20231321	          0.00043702	          0.01581664	          0.09214266	          0.10818208	          0.07610325	          0.05290748	          0.11394061	          0.13487844	          0.19689166	          0.07286523	          0.00629424	          0.02821383	          0.06456650	          0.08618356	          0.04294944	          0.03329193	          0.12618233	          0.11720242	          0.15877110	          0.07563375	          0.10398314	          0.54347580	          0.57665193	          0.66143311	          0.49187075	          0.00119956	          0.07262471	          0.14736664	          0.25388367	          0.04084962	          0.03679667	          0.05165050	          0.09611800	          0.15089980	          0.04133619	          0.04418073	          0.15297844	          0.39706218	          0.59213407	          0.20199029	
          0.09999991	          0.03194058	          0.04955255	          0.26636979	          0.43098699	          0.10175259	          0.10768839	          0.29399539	          0.29458743	          0.39290911	          0.19626576	          0.00156466	          0.01623201	          0.09197814	          0.10793441	          0.07602187	          0.01785612	          0.11555298	          0.13656905	          0.19944898	          0.07368913	          0.00363121	          0.02856347	          0.06422744	          0.08559789	          0.04285699	          0.02754691	          0.12938563	          0.11808845	          0.16117257	          0.07500432	          0.20706035	          0.54931693	          0.58056474	          0.66537701	          0.49575246	          0.00881697	          0.07144104	          0.14437632	          0.24852127	          0.04023138	          0.03589021	          0.05242403	          0.09632295	          0.15075419	          0.04189172	          0.06922566	          0.15514551	          0.39786273	          0.59204619	          0.20367928	
          0.10092584	          0.03204190	          0.04832936	          0.26597625	          0.43065344	          0.10129906	          0.09055890	          0.29088244	          0.28709143	          0.38392904	          0.19025382	          0.00114191	          0.01665034	          0.09175362	          0.10762562	          0.07588161	          0.00586210	          0.11712293	          0.13827869	          0.20203858	          0.07451881	          0.00406142	          0.02890931	          0.06385211	          0.08497340	          0.04273081	          0.02491998	          0.13260241	          0.11900862	          0.16363354	          0.07438369	          0.13092462	          0.55520619	          0.58443135	          0.66928761	          0.49957509	          0.01780630	          0.07041254	          0.14144298	          0.24321940	          0.03966657	          0.01781962	          0.05321176	          0.09651759	          0.15059511	          0.04244006	          0.07896387	          0.15724650	          0.39859310	          0.59186970	          0.20531650	
